<?xml version="1.0" encoding="UTF-8"?>
<svg id="Layer_2" data-name="Layer 2" xmlns="http://www.w3.org/2000/svg" viewBox="0 0 1200 1200">
  <defs>
    <style>
      .cls-1 {
        fill: #c97a0c;
      }

      .cls-2 {
        fill: #fff;
      }
    </style>
  </defs>
  <g id="Layer_1-2" data-name="Layer 1">
    <g>
      <rect class="cls-1" width="1200" height="1200"/>
      <g>
        <path class="cls-2" d="M385.04,608.35c9.55-10.3,16.57-22.39,21.05-36.28,4.48-13.88,6.86-28.73,7.17-44.56l-56.43-9.41c-.3,11.95-2.46,23.22-6.49,33.81-4.03,10.6-10.6,19.26-19.71,25.98-9.11,6.72-21.88,10.08-38.29,10.08-15.23,0-28.96-3.51-41.2-10.52-12.25-7.01-21.88-17.98-28.89-32.92-7.02-14.93-10.52-34.49-10.52-58.67,0-18.51,2.16-34.18,6.49-47.03,4.32-12.83,10-23.21,17.02-31.12,7.01-7.91,14.78-13.58,23.29-17.02,8.51-3.43,17.09-5.15,25.75-5.15,9.85,0,19.18,2.17,27.99,6.49,8.8,4.33,15.97,10.68,21.5,19.03,5.52,8.36,8.29,18.81,8.29,31.35l59.56-15.67c-.3-14.62-3.36-27.77-9.18-39.41-5.82-11.64-13.81-21.5-23.96-29.56-10.15-8.06-22.25-14.25-36.28-18.59-14.04-4.32-29.26-6.49-45.68-6.49-21.2,0-40.46,3.44-57.77,10.3-17.32,6.87-32.32,17.1-45.01,30.68-12.69,13.59-22.39,30.08-29.11,49.49-6.72,19.41-10.08,41.65-10.08,66.73s3.28,46.58,9.85,65.39c6.56,18.81,16.19,34.56,28.89,47.25,12.69,12.69,28.06,22.25,46.13,28.66,18.06,6.42,38.59,9.63,61.58,9.63s40.9-2.84,56.43-8.51c15.52-5.67,28.06-13.66,37.62-23.96Z"/>
        <path class="cls-2" d="M477.29,632.98c10.15,5.22,21.79,7.84,34.93,7.84,14.33,0,27.1-2.76,38.29-8.29,11.2-5.52,20.67-12.91,28.44-22.17,7.76-9.25,13.73-19.55,17.91-30.9h8.06c.59,9.85,1.41,19.64,2.46,29.33,1.04,9.71,2.16,18.29,3.36,25.75h56.88c-.9-10.75-1.72-21.57-2.46-32.47-.75-10.9-1.34-21.72-1.79-32.47-.45-10.75-.67-21.34-.67-31.8v-40.31c0-24.18-3.58-43.96-10.75-59.34-7.17-15.37-17.99-26.72-32.47-34.04-14.49-7.31-33.22-10.97-56.21-10.97-14.33,0-27.62,1.5-39.86,4.48-12.25,2.99-23.14,7.54-32.69,13.66-9.56,6.12-17.69,13.66-24.41,22.62s-11.87,19.56-15.45,31.8l56.88,17.47c2.39-9.25,6.19-16.86,11.42-22.84,5.22-5.97,11.49-10.45,18.81-13.44,7.31-2.98,15.3-4.48,23.96-4.48,12.83,0,22.24,2.99,28.21,8.96,5.97,5.98,8.96,13.14,8.96,21.5,0,5.98-1.5,10.52-4.48,13.66-2.99,3.13-7.54,5.37-13.66,6.72-6.12,1.34-13.96,2.76-23.51,4.25-17.91,2.69-33.89,5.82-47.92,9.41-14.04,3.58-25.83,8.06-35.38,13.44-9.56,5.37-16.79,12.39-21.72,21.05-4.93,8.66-7.39,19.41-7.39,32.25,0,14.63,2.83,26.87,8.51,36.72,5.67,9.85,13.58,17.4,23.74,22.62ZM512.45,547.44c3.43-4.03,8.06-7.24,13.88-9.63,5.82-2.39,12.46-4.33,19.93-5.82,7.46-1.49,15-2.83,22.62-4.03,7.61-1.19,15-2.91,22.17-5.15,3.07-.96,5.96-2.08,8.7-3.34l.7,29.54c-2.99,7.17-6.79,13.59-11.42,19.26-4.63,5.67-9.71,10.38-15.23,14.11-5.53,3.74-11.2,6.65-17.02,8.73-5.82,2.09-11.57,3.13-17.24,3.13-9.56,0-17.32-2.69-23.29-8.06-5.98-5.37-8.96-12.69-8.96-21.95,0-7.17,1.71-12.76,5.15-16.79Z"/>
        <path class="cls-2" d="M779.81,676.87c3.73-11.2,5.6-24.56,5.6-40.08v-237.36h-64.49v235.57c0,13.44-2.91,22.39-8.73,26.87s-15.61,6.72-29.33,6.72l5.37,55.09c2.09.59,4.1.97,6.05,1.12,1.94.15,3.81.22,5.6.22,14.03,0,26.35-1.72,36.95-5.15,10.59-3.44,19.48-8.66,26.65-15.67,7.17-7.02,12.61-16.12,16.35-27.32Z"/>
        <path class="cls-2" d="M724.28,356.21c6.72,5.23,16.35,7.84,28.89,7.84s22.62-2.69,29.33-8.06c6.72-5.37,10.08-12.99,10.08-22.84,0-10.45-3.36-18.36-10.08-23.74-6.72-5.37-16.5-8.06-29.33-8.06s-22.17,2.69-28.89,8.06c-6.72,5.37-10.08,13.29-10.08,23.74s3.36,17.84,10.08,23.06Z"/>
        <path class="cls-2" d="M1053,602.08c-.75-10.9-1.34-21.72-1.79-32.47-.45-10.75-.67-21.34-.67-31.8v-40.31c0-24.18-3.58-43.96-10.75-59.34-7.17-15.37-17.99-26.72-32.47-34.04-14.48-7.31-33.22-10.97-56.21-10.97-14.33,0-27.62,1.5-39.86,4.48-12.25,2.99-23.14,7.54-32.69,13.66-9.56,6.12-17.69,13.66-24.41,22.62-6.72,8.96-11.87,19.56-15.45,31.8l56.88,17.47c2.38-9.25,6.19-16.86,11.42-22.84,5.22-5.97,11.49-10.45,18.81-13.44,7.31-2.98,15.3-4.48,23.96-4.48,12.83,0,22.24,2.99,28.21,8.96,5.97,5.98,8.96,13.14,8.96,21.5,0,5.98-1.5,10.52-4.48,13.66-2.99,3.13-7.54,5.37-13.66,6.72-6.12,1.34-13.96,2.76-23.51,4.25-17.91,2.69-33.89,5.82-47.92,9.41-14.04,3.58-25.83,8.06-35.38,13.44-9.56,5.37-16.79,12.39-21.72,21.05-4.93,8.66-7.39,19.41-7.39,32.25,0,14.63,2.83,26.87,8.51,36.72,5.67,9.85,13.58,17.4,23.74,22.62,10.15,5.22,21.79,7.84,34.93,7.84,14.33,0,27.09-2.76,38.29-8.29,11.2-5.52,20.67-12.91,28.44-22.17,7.76-9.25,13.73-19.55,17.91-30.9h8.06c.6,9.85,1.41,19.64,2.46,29.33,1.04,9.71,2.16,18.29,3.36,25.75h56.88c-.89-10.75-1.72-21.57-2.46-32.47ZM976.86,568.27c-4.63,5.67-9.71,10.38-15.23,14.11-5.53,3.74-11.2,6.65-17.02,8.73-5.82,2.09-11.57,3.13-17.24,3.13-9.56,0-17.32-2.69-23.29-8.06-5.97-5.37-8.96-12.69-8.96-21.95,0-7.17,1.71-12.76,5.15-16.79,3.43-4.03,8.06-7.24,13.88-9.63,5.82-2.39,12.46-4.33,19.93-5.82,7.46-1.49,15-2.83,22.62-4.03,7.62-1.19,15-2.91,22.17-5.15,3.07-.96,5.96-2.08,8.7-3.34l.7,29.54c-2.99,7.17-6.79,13.59-11.42,19.26Z"/>
        <path class="cls-2" d="M423.76,873.35c-2.1,4.51-5.24,8.01-9.43,10.48-4.19,2.47-9.73,3.71-16.6,3.71s-13.51-1.48-18.94-4.43c-5.43-2.95-9.59-7.58-12.49-13.86-2.9-6.29-4.35-14.48-4.35-24.58,0-7.95.91-14.77,2.74-20.47,1.83-5.69,4.32-10.37,7.49-14.02,3.17-3.65,6.85-6.39,11.04-8.22,4.19-1.83,8.54-2.74,13.06-2.74,4.94,0,9.48.97,13.62,2.9,4.14,1.93,7.44,4.78,9.91,8.54,2.47,3.76,3.6,8.54,3.38,14.34l11.6-2.74c-.11-5.16-1.1-9.83-2.98-14.02-1.88-4.19-4.54-7.76-7.98-10.72-3.44-2.95-7.47-5.21-12.09-6.77-4.62-1.56-9.73-2.34-15.31-2.34-7.09,0-13.54,1.32-19.34,3.95-5.8,2.63-10.75,6.42-14.83,11.36-4.08,4.94-7.2,10.88-9.35,17.81-2.15,6.93-3.22,14.75-3.22,23.45s1.05,15.93,3.14,22.64c2.1,6.72,5.18,12.39,9.27,17,4.08,4.62,9.08,8.11,14.99,10.48,5.91,2.36,12.62,3.55,20.15,3.55s13.38-1.02,18.54-3.06c5.16-2.04,9.37-4.86,12.65-8.46,3.28-3.6,5.72-7.79,7.33-12.57,1.61-4.78,2.47-9.86,2.58-15.23l-10.96-2.1c-.32,6.23-1.53,11.6-3.63,16.12Z"/>
        <polygon class="cls-2" points="471.87 790.35 459.95 790.35 459.95 896.72 464.78 896.72 471.87 896.72 523.29 896.72 523.29 885.92 471.87 885.92 471.87 790.35"/>
        <path class="cls-2" d="M575.35,790.35l-37.88,106.38h13.06l8.45-24.82h50.3l8.45,24.82h12.73l-37.72-106.38h-17.41ZM562.33,862.07l20.92-61.41h1.77l20.92,61.41h-43.61Z"/>
        <path class="cls-2" d="M720.25,856.27c0,6.77-1.18,12.49-3.55,17.17s-5.86,8.2-10.47,10.56c-4.62,2.37-10.42,3.55-17.41,3.55s-12.49-1.18-17.16-3.55c-4.68-2.36-8.2-5.88-10.56-10.56s-3.54-10.4-3.54-17.17v-65.92h-12.09v66.4c0,5.27.62,10.1,1.85,14.51,1.23,4.41,3.03,8.3,5.4,11.69,2.36,3.38,5.29,6.26,8.79,8.62,3.49,2.36,7.52,4.14,12.09,5.32,4.56,1.18,9.7,1.77,15.39,1.77,13.97,0,24.68-3.63,32.15-10.88,7.47-7.25,11.2-17.59,11.2-31.03v-66.4h-12.09v65.92Z"/>
        <polygon class="cls-2" points="837.58 790.35 823.4 790.35 795.19 835.64 794.39 835.64 766.02 790.35 751.83 790.35 787.29 843.69 752.48 896.72 766.5 896.72 794.39 851.11 795.03 851.11 824.2 896.72 838.39 896.72 802.44 843.53 837.58 790.35"/>
      </g>
    </g>
  </g>
</svg>