<?xml version="1.0" encoding="UTF-8"?>
<svg id="Layer_2" data-name="Layer 2" xmlns="http://www.w3.org/2000/svg" viewBox="0 0 1350.7 1350.7">
  <defs>
    <style>
      .cls-1 {
        fill: #c97a0c;
      }

      .cls-2 {
        fill: #fff;
      }
    </style>
  </defs>
  <g id="Layer_1-2" data-name="Layer 1">
    <g>
      <rect class="cls-1" width="1350.7" height="1350.7"/>
      <g>
        <path class="cls-2" d="M480.97,682.9c8.64-9.31,14.98-20.25,19.03-32.8,4.05-12.55,6.21-25.98,6.48-40.29l-51.03-8.5c-.27,10.8-2.23,21-5.87,30.58-3.64,9.59-9.59,17.41-17.82,23.49-8.24,6.07-19.78,9.11-34.62,9.11-13.77,0-26.19-3.17-37.26-9.52-11.07-6.34-19.78-16.26-26.12-29.76-6.35-13.5-9.52-31.18-9.52-53.05,0-16.74,1.96-30.91,5.87-42.52,3.91-11.6,9.04-20.99,15.39-28.14,6.34-7.15,13.36-12.28,21.06-15.39,7.69-3.1,15.45-4.66,23.29-4.66,8.91,0,17.34,1.96,25.31,5.87,7.96,3.92,14.44,9.66,19.44,17.21,4.99,7.56,7.49,17.01,7.49,28.35l53.86-14.17c-.27-13.22-3.04-25.11-8.3-35.64-5.26-10.53-12.49-19.44-21.67-26.73-9.18-7.29-20.12-12.89-32.8-16.81-12.69-3.91-26.46-5.87-41.31-5.87-19.17,0-36.59,3.11-52.24,9.31-15.66,6.21-29.23,15.46-40.7,27.74-11.48,12.29-20.25,27.2-26.32,44.75-6.07,17.55-9.11,37.66-9.11,60.34s2.97,42.12,8.91,59.13c5.93,17.01,14.64,31.25,26.12,42.72,11.47,11.48,25.37,20.12,41.71,25.92,16.33,5.8,34.89,8.71,55.68,8.71s36.99-2.57,51.03-7.69c14.03-5.13,25.37-12.35,34.02-21.67Z"/>
        <path class="cls-2" d="M564.39,705.17c9.17,4.72,19.7,7.09,31.59,7.09,12.96,0,24.5-2.5,34.63-7.49,10.12-4.99,18.69-11.67,25.71-20.05,7.02-8.37,12.42-17.68,16.2-27.94h7.29c.54,8.91,1.28,17.76,2.23,26.53.94,8.78,1.96,16.54,3.04,23.29h51.43c-.81-9.72-1.56-19.5-2.23-29.36-.68-9.85-1.22-19.64-1.62-29.36-.4-9.72-.61-19.3-.61-28.75v-36.45c0-21.87-3.24-39.75-9.72-53.66-6.48-13.9-16.27-24.16-29.36-30.78-13.1-6.61-30.04-9.92-50.82-9.92-12.96,0-24.98,1.35-36.04,4.05-11.07,2.7-20.93,6.82-29.56,12.35-8.64,5.54-16,12.35-22.07,20.45-6.07,8.1-10.73,17.69-13.97,28.75l51.43,15.79c2.16-8.37,5.6-15.25,10.33-20.65,4.72-5.4,10.39-9.45,17.01-12.15,6.61-2.7,13.83-4.05,21.67-4.05,11.61,0,20.11,2.7,25.51,8.1,5.4,5.4,8.1,11.88,8.1,19.44,0,5.4-1.35,9.52-4.05,12.35-2.7,2.83-6.82,4.86-12.35,6.07-5.54,1.22-12.62,2.5-21.26,3.85-16.2,2.43-30.65,5.26-43.33,8.5-12.69,3.24-23.35,7.29-31.99,12.15-8.64,4.86-15.19,11.21-19.64,19.03-4.45,7.83-6.68,17.55-6.68,29.16,0,13.23,2.56,24.3,7.69,33.21,5.13,8.91,12.28,15.73,21.46,20.45ZM596.18,627.82c3.1-3.65,7.29-6.54,12.55-8.71,5.26-2.16,11.27-3.91,18.02-5.26,6.74-1.35,13.57-2.56,20.45-3.65,6.88-1.08,13.57-2.63,20.05-4.66,2.77-.87,5.39-1.88,7.87-3.02l.64,26.71c-2.7,6.48-6.14,12.29-10.33,17.41-4.19,5.13-8.78,9.38-13.77,12.76-5,3.38-10.12,6.01-15.39,7.9-5.26,1.89-10.47,2.83-15.59,2.83-8.65,0-15.66-2.43-21.06-7.29-5.4-4.86-8.1-11.47-8.1-19.84,0-6.48,1.55-11.54,4.66-15.19Z"/>
        <path class="cls-2" d="M837.94,744.86c3.37-10.12,5.06-22.21,5.06-36.24v-214.63h-58.32v213.01c0,12.15-2.63,20.25-7.9,24.3s-14.11,6.07-26.53,6.07l4.86,49.81c1.89.54,3.71.87,5.47,1.01,1.75.13,3.44.2,5.06.2,12.69,0,23.82-1.56,33.41-4.66,9.58-3.11,17.62-7.83,24.09-14.17,6.48-6.35,11.4-14.58,14.78-24.7Z"/>
        <path class="cls-2" d="M787.73,454.9c6.08,4.73,14.78,7.09,26.12,7.09s20.45-2.43,26.53-7.29c6.08-4.86,9.11-11.74,9.11-20.65,0-9.45-3.04-16.6-9.11-21.46-6.07-4.86-14.92-7.29-26.53-7.29s-20.05,2.43-26.12,7.29c-6.07,4.86-9.11,12.02-9.11,21.46s3.04,16.14,9.11,20.86Z"/>
        <path class="cls-2" d="M1084.97,677.23c-.68-9.85-1.22-19.64-1.62-29.36-.4-9.72-.61-19.3-.61-28.75v-36.45c0-21.87-3.24-39.75-9.72-53.66-6.48-13.9-16.27-24.16-29.36-30.78-13.1-6.61-30.04-9.92-50.82-9.92-12.96,0-24.97,1.35-36.04,4.05-11.07,2.7-20.92,6.82-29.56,12.35-8.64,5.54-16,12.35-22.07,20.45-6.07,8.1-10.73,17.69-13.97,28.75l51.43,15.79c2.16-8.37,5.6-15.25,10.33-20.65,4.72-5.4,10.39-9.45,17.01-12.15,6.61-2.7,13.83-4.05,21.66-4.05,11.61,0,20.11,2.7,25.51,8.1,5.4,5.4,8.1,11.88,8.1,19.44,0,5.4-1.35,9.52-4.05,12.35-2.7,2.83-6.82,4.86-12.35,6.07-5.54,1.22-12.62,2.5-21.26,3.85-16.2,2.43-30.64,5.26-43.33,8.5-12.69,3.24-23.35,7.29-31.99,12.15-8.64,4.86-15.19,11.21-19.64,19.03-4.45,7.83-6.68,17.55-6.68,29.16,0,13.23,2.56,24.3,7.69,33.21,5.13,8.91,12.28,15.73,21.46,20.45,9.17,4.72,19.7,7.09,31.59,7.09,12.96,0,24.5-2.5,34.62-7.49,10.13-4.99,18.69-11.67,25.72-20.05,7.02-8.37,12.41-17.68,16.2-27.94h7.29c.54,8.91,1.28,17.76,2.23,26.53.94,8.78,1.96,16.54,3.04,23.29h51.43c-.81-9.72-1.56-19.5-2.23-29.36ZM1016.13,646.65c-4.19,5.13-8.78,9.38-13.77,12.76-5,3.38-10.13,6.01-15.39,7.9-5.26,1.89-10.47,2.83-15.59,2.83-8.64,0-15.66-2.43-21.06-7.29-5.4-4.86-8.1-11.47-8.1-19.84,0-6.48,1.55-11.54,4.66-15.19,3.1-3.65,7.29-6.54,12.56-8.71,5.26-2.16,11.27-3.91,18.02-5.26,6.74-1.35,13.57-2.56,20.45-3.65,6.89-1.08,13.57-2.63,20.05-4.66,2.77-.87,5.39-1.88,7.87-3.02l.64,26.71c-2.7,6.48-6.14,12.29-10.33,17.41Z"/>
        <path class="cls-2" d="M515.99,922.53c-1.89,4.08-4.74,7.24-8.53,9.47-3.79,2.24-8.79,3.35-15.01,3.35s-12.22-1.33-17.12-4.01c-4.91-2.67-8.67-6.85-11.3-12.53-2.62-5.68-3.93-13.09-3.93-22.23,0-7.19.82-13.36,2.48-18.51,1.65-5.15,3.91-9.38,6.78-12.68,2.87-3.3,6.19-5.78,9.98-7.43,3.79-1.65,7.72-2.48,11.81-2.48,4.47,0,8.57.87,12.32,2.62,3.74,1.75,6.73,4.32,8.96,7.72,2.23,3.4,3.25,7.72,3.06,12.97l10.49-2.48c-.1-4.66-1-8.89-2.7-12.68-1.7-3.79-4.11-7.02-7.21-9.69-3.11-2.67-6.75-4.71-10.93-6.12-4.18-1.41-8.79-2.11-13.85-2.11-6.41,0-12.24,1.19-17.49,3.57-5.25,2.38-9.72,5.81-13.41,10.27-3.69,4.47-6.51,9.84-8.45,16.11-1.94,6.27-2.91,13.33-2.91,21.21s.95,14.41,2.84,20.48c1.89,6.07,4.69,11.2,8.38,15.38,3.69,4.18,8.21,7.34,13.55,9.47,5.34,2.14,11.42,3.21,18.22,3.21s12.1-.92,16.76-2.77c4.66-1.84,8.48-4.39,11.44-7.65,2.96-3.25,5.17-7.04,6.63-11.37,1.46-4.32,2.23-8.91,2.33-13.77l-9.91-1.9c-.29,5.64-1.38,10.49-3.28,14.57Z"/>
        <polygon class="cls-2" points="559.49 847.47 548.71 847.47 548.71 943.66 553.08 943.66 559.49 943.66 605.98 943.66 605.98 933.89 559.49 933.89 559.49 847.47"/>
        <path class="cls-2" d="M653.06,847.47l-34.25,96.19h11.81l7.64-22.44h45.49l7.64,22.44h11.51l-34.1-96.19h-15.74ZM641.28,912.32l18.91-55.53h1.6l18.91,55.53h-39.43Z"/>
        <path class="cls-2" d="M784.08,907.08c0,6.12-1.07,11.3-3.21,15.52-2.14,4.23-5.3,7.41-9.47,9.55-4.18,2.14-9.43,3.21-15.74,3.21s-11.29-1.07-15.52-3.21c-4.23-2.14-7.41-5.32-9.55-9.55s-3.21-9.4-3.21-15.52v-59.61h-10.93v60.05c0,4.76.56,9.13,1.68,13.12,1.11,3.99,2.74,7.51,4.88,10.57,2.14,3.06,4.78,5.66,7.94,7.8,3.16,2.14,6.8,3.74,10.93,4.81,4.13,1.07,8.77,1.6,13.92,1.6,12.63,0,22.32-3.28,29.08-9.84,6.75-6.56,10.13-15.91,10.13-28.06v-60.05h-10.93v59.61Z"/>
        <polygon class="cls-2" points="890.18 847.47 877.36 847.47 851.85 888.42 851.12 888.42 825.47 847.47 812.65 847.47 844.71 895.71 813.23 943.66 825.91 943.66 851.12 902.41 851.7 902.41 878.09 943.66 890.91 943.66 858.41 895.56 890.18 847.47"/>
      </g>
    </g>
  </g>
</svg>