<?xml version="1.0" encoding="UTF-8"?>
<svg id="Layer_2" data-name="Layer 2" xmlns="http://www.w3.org/2000/svg" xmlns:xlink="http://www.w3.org/1999/xlink" viewBox="0 0 143.42 143.42">
  <defs>
    <style>
      .cls-1 {
        fill: url(#linear-gradient);
      }

      .cls-2 {
        fill: #fff;
      }
    </style>
    <linearGradient id="linear-gradient" x1="3.61" y1="3.61" x2="146.3" y2="146.3" gradientUnits="userSpaceOnUse">
      <stop offset="0" stop-color="#00afaa"/>
      <stop offset=".31" stop-color="#489b71"/>
      <stop offset=".64" stop-color="#8d893b"/>
      <stop offset=".88" stop-color="#b87e19"/>
      <stop offset="1" stop-color="#c97a0c"/>
    </linearGradient>
  </defs>
  <g id="Layer_1-2" data-name="Layer 1">
    <g>
      <rect class="cls-1" width="143.42" height="143.42" rx="22.24" ry="22.24"/>
      <path class="cls-2" d="M74.91,112.65c-6.11,0-11.56-.85-16.35-2.56-4.8-1.7-8.88-4.24-12.25-7.61-3.37-3.37-5.93-7.55-7.67-12.55-1.75-5-2.62-10.78-2.62-17.36s.89-12.57,2.68-17.72c1.78-5.15,4.36-9.53,7.73-13.14,3.37-3.61,7.35-6.32,11.95-8.15,4.6-1.82,9.71-2.74,15.34-2.74,4.36,0,8.4.58,12.13,1.72,3.73,1.15,6.94,2.79,9.63,4.94,2.69,2.14,4.82,4.76,6.36,7.85s2.36,6.58,2.44,10.47l-15.82,4.16c0-3.33-.73-6.1-2.2-8.33-1.47-2.22-3.37-3.9-5.71-5.05-2.34-1.15-4.82-1.72-7.43-1.72-2.3,0-4.58.46-6.84,1.37-2.26.91-4.32,2.42-6.18,4.52-1.86,2.1-3.37,4.86-4.52,8.27-1.15,3.41-1.72,7.57-1.72,12.49,0,6.42.93,11.62,2.79,15.58,1.86,3.97,4.42,6.88,7.67,8.74,3.25,1.86,6.9,2.79,10.94,2.79,4.36,0,7.75-.89,10.17-2.68,2.42-1.78,4.16-4.08,5.23-6.9,1.07-2.81,1.64-5.81,1.72-8.98l14.99,2.5c-.08,4.2-.71,8.15-1.9,11.83-1.19,3.69-3.05,6.9-5.59,9.63-2.54,2.74-5.87,4.86-9.99,6.36-4.12,1.51-9.12,2.26-14.99,2.26Z"/>
    </g>
  </g>
</svg>