<?xml version="1.0" encoding="UTF-8"?>
<svg id="Layer_2" data-name="Layer 2" xmlns="http://www.w3.org/2000/svg" xmlns:xlink="http://www.w3.org/1999/xlink" viewBox="0 0 1200 1200">
  <defs>
    <style>
      .cls-1 {
        fill: url(#linear-gradient);
      }

      .cls-2 {
        fill: #fff;
      }
    </style>
    <linearGradient id="linear-gradient" x1="-26.78" y1="-26.78" x2="1286.43" y2="1286.43" gradientUnits="userSpaceOnUse">
      <stop offset="0" stop-color="#00afaa"/>
      <stop offset=".31" stop-color="#489b71"/>
      <stop offset=".64" stop-color="#8d893b"/>
      <stop offset=".88" stop-color="#b87e19"/>
      <stop offset="1" stop-color="#c97a0c"/>
    </linearGradient>
  </defs>
  <g id="Layer_1-2" data-name="Layer 1">
    <g>
      <rect class="cls-1" width="1200" height="1200"/>
      <path class="cls-2" d="M626.81,942.55c-51.09,0-96.7-7.14-136.83-21.4-40.15-14.26-74.31-35.48-102.5-63.69-28.21-28.19-49.6-63.19-64.19-104.99-14.6-41.8-21.89-90.22-21.89-145.29s7.46-105.14,22.39-148.28c14.93-43.12,36.48-79.77,64.69-109.96,28.19-30.18,61.53-52.9,100.01-68.17,38.47-15.25,81.26-22.89,128.38-22.89,36.48,0,70.31,4.82,101.51,14.43,31.18,9.62,58.04,23.39,80.61,41.3,22.55,17.91,40.3,39.81,53.24,65.68s19.73,55.08,20.4,87.57l-132.36,34.83c0-27.86-6.14-51.08-18.41-69.66-12.28-18.57-28.21-32.67-47.77-42.29-19.58-9.61-40.3-14.43-62.2-14.43-19.25,0-38.31,3.83-57.22,11.44-18.91,7.63-36.17,20.25-51.75,37.82-15.6,17.59-28.21,40.65-37.82,69.16-9.62,28.53-14.43,63.36-14.43,104.49,0,53.74,7.79,97.2,23.39,130.37,15.58,33.18,36.98,57.56,64.19,73.14,27.2,15.6,57.72,23.39,91.55,23.39,36.48,0,64.84-7.46,85.09-22.39,20.23-14.93,34.83-34.16,43.79-57.72,8.96-23.54,13.76-48.59,14.43-75.13l125.39,20.9c-.67,35.17-5.97,68.17-15.92,99.02-9.95,30.85-25.55,57.72-46.77,80.61-21.24,22.89-49.1,40.65-83.59,53.24-34.5,12.59-76.3,18.91-125.39,18.91Z"/>
    </g>
  </g>
</svg>